# xmcd
#
# Track frame offsets:
#  150
#  20033
#  30693
#  49233
#  65485
#  79185
#  90995
#  104270
#  117523
#  131588
#  147578
#  158805
#  172388
#  187263
#
# Disc length: 2723 seconds
#
# Revision: 0
# Processed by: cddbd v1.5.1PL2 Copyright (c) Steve Scherf et al.
# Submitted via: Collectorz.com_Music_Collector 6.10
#
DISCID=cf0aa10e
DTITLE=Kathy Durkin - Kathy's Favourites
DYEAR=1900
DGENRE=Country
TTITLE0=Working Man
TTITLE1=Louisiana Saturday Night
TTITLE2=The Sweetest Thing
TTITLE3=Daddy Frank
TTITLE4=Send Me The Pillow
TTITLE5=Too Old To Die Young
TTITLE6=Lake Near Killaloe
TTITLE7=Love Is The Answer
TTITLE8=Jones On The Jukebox
TTITLE9=Save The Last Dance For Me
TTITLE10=It's A Lovely Lovely World
TTITLE11=Hold What You Got
TTITLE12=The Clock In The Tower
TTITLE13=Midnight To Moonlight
EXTD=
EXTT0=
EXTT1=
EXTT2=
EXTT3=
EXTT4=
EXTT5=
EXTT6=
EXTT7=
EXTT8=
EXTT9=
EXTT10=
EXTT11=
EXTT12=
EXTT13=
PLAYORDER=
